<svg xmlns="http://www.w3.org/2000/svg" version="1.1" xmlns:xlink="http://www.w3.org/1999/xlink" xmlns:svgjs="http://svgjs.dev/svgjs" viewBox="0 0 800 800"><defs><linearGradient x1="50%" y1="0%" x2="50%" y2="100%" id="cccoil-grad"><stop stop-color="hsl(206, 75%, 49%)" stop-opacity="1" offset="0%"></stop><stop stop-color="hsl(331, 90%, 56%)" stop-opacity="1" offset="100%"></stop></linearGradient></defs><g stroke="url(#cccoil-grad)" fill="none" stroke-linecap="round"><circle r="280.5" cx="400" cy="400" stroke-width="7" stroke-dasharray="1498 1762" transform="rotate(360, 400, 400)" opacity="0.23"></circle><circle r="264" cx="400" cy="400" stroke-width="7" stroke-dasharray="1322 1659" transform="rotate(338, 400, 400)" opacity="0.32"></circle><circle r="247.5" cx="400" cy="400" stroke-width="7" stroke-dasharray="1157 1555" transform="rotate(315, 400, 400)" opacity="0.16"></circle><circle r="231" cx="400" cy="400" stroke-width="7" stroke-dasharray="1002 1451" transform="rotate(293, 400, 400)" opacity="0.13"></circle><circle r="214.5" cx="400" cy="400" stroke-width="7" stroke-dasharray="859 1348" transform="rotate(270, 400, 400)" opacity="0.47"></circle><circle r="198" cx="400" cy="400" stroke-width="7" stroke-dasharray="727 1244" transform="rotate(248, 400, 400)" opacity="0.29"></circle><circle r="181.5" cx="400" cy="400" stroke-width="7" stroke-dasharray="606 1140" transform="rotate(225, 400, 400)" opacity="0.14"></circle><circle r="165" cx="400" cy="400" stroke-width="7" stroke-dasharray="496 1037" transform="rotate(203, 400, 400)" opacity="0.21"></circle><circle r="148.5" cx="400" cy="400" stroke-width="7" stroke-dasharray="397 933" transform="rotate(180, 400, 400)" opacity="0.58"></circle><circle r="132" cx="400" cy="400" stroke-width="7" stroke-dasharray="308 829" transform="rotate(158, 400, 400)" opacity="0.48"></circle><circle r="115.5" cx="400" cy="400" stroke-width="7" stroke-dasharray="231 726" transform="rotate(135, 400, 400)" opacity="0.90"></circle><circle r="99" cx="400" cy="400" stroke-width="7" stroke-dasharray="165 622" transform="rotate(113, 400, 400)" opacity="0.84"></circle><circle r="82.5" cx="400" cy="400" stroke-width="7" stroke-dasharray="110 518" transform="rotate(90, 400, 400)" opacity="0.68"></circle><circle r="66" cx="400" cy="400" stroke-width="7" stroke-dasharray="66 415" transform="rotate(68, 400, 400)" opacity="0.13"></circle><circle r="49.5" cx="400" cy="400" stroke-width="7" stroke-dasharray="33 311" transform="rotate(45, 400, 400)" opacity="0.88"></circle><circle r="33" cx="400" cy="400" stroke-width="7" stroke-dasharray="11 207" transform="rotate(23, 400, 400)" opacity="0.09"></circle><circle r="16.5" cx="400" cy="400" stroke-width="7" stroke-dasharray="0 104" opacity="0.70"></circle></g></svg>